<mxfile host="Electron" agent="Mozilla/5.0 (Windows NT 10.0; Win64; x64) AppleWebKit/537.36 (KHTML, like Gecko) draw.io/27.0.9 Chrome/134.0.6998.205 Electron/35.4.0 Safari/537.36" version="27.0.9" pages="3">
  <diagram id="T16PAVgMD9fqnAMJHyoN" name="State Diagrams">
    <mxGraphModel dx="1840" dy="1138" grid="1" gridSize="10" guides="1" tooltips="1" connect="1" arrows="1" fold="1" page="0" pageScale="1" pageWidth="850" pageHeight="1100" math="0" shadow="0">
      <root>
        <mxCell id="0" />
        <mxCell id="1" parent="0" />
        <mxCell id="FSPYU60QLCUDP6EqwfmJ-58" style="edgeStyle=orthogonalEdgeStyle;rounded=0;orthogonalLoop=1;jettySize=auto;html=1;" parent="1" source="FSPYU60QLCUDP6EqwfmJ-42" target="FSPYU60QLCUDP6EqwfmJ-43" edge="1">
          <mxGeometry relative="1" as="geometry" />
        </mxCell>
        <mxCell id="FSPYU60QLCUDP6EqwfmJ-42" value="" style="ellipse;html=1;" parent="1" vertex="1">
          <mxGeometry x="570" y="750" width="60" height="60" as="geometry" />
        </mxCell>
        <mxCell id="FSPYU60QLCUDP6EqwfmJ-60" style="edgeStyle=orthogonalEdgeStyle;rounded=0;orthogonalLoop=1;jettySize=auto;html=1;" parent="1" source="FSPYU60QLCUDP6EqwfmJ-43" target="FSPYU60QLCUDP6EqwfmJ-45" edge="1">
          <mxGeometry relative="1" as="geometry" />
        </mxCell>
        <mxCell id="FSPYU60QLCUDP6EqwfmJ-43" value="&lt;font style=&quot;font-size: 24px;&quot;&gt;Start Button&lt;/font&gt;" style="rounded=1;whiteSpace=wrap;html=1;" parent="1" vertex="1">
          <mxGeometry x="835" y="730" width="250" height="100" as="geometry" />
        </mxCell>
        <mxCell id="FSPYU60QLCUDP6EqwfmJ-61" style="edgeStyle=orthogonalEdgeStyle;rounded=0;orthogonalLoop=1;jettySize=auto;html=1;" parent="1" source="FSPYU60QLCUDP6EqwfmJ-45" target="FSPYU60QLCUDP6EqwfmJ-46" edge="1">
          <mxGeometry relative="1" as="geometry" />
        </mxCell>
        <mxCell id="FSPYU60QLCUDP6EqwfmJ-45" value="&lt;font style=&quot;font-size: 24px;&quot;&gt;Player Walks&lt;/font&gt;" style="rounded=1;whiteSpace=wrap;html=1;" parent="1" vertex="1">
          <mxGeometry x="839" y="881" width="240" height="90" as="geometry" />
        </mxCell>
        <mxCell id="FSPYU60QLCUDP6EqwfmJ-90" style="edgeStyle=orthogonalEdgeStyle;curved=1;rounded=0;orthogonalLoop=1;jettySize=auto;html=1;entryX=0.5;entryY=0;entryDx=0;entryDy=0;" parent="1" source="FSPYU60QLCUDP6EqwfmJ-46" target="20Vrr0Z5wNa73pxblmch-1" edge="1">
          <mxGeometry relative="1" as="geometry">
            <mxPoint x="960" y="1170" as="targetPoint" />
          </mxGeometry>
        </mxCell>
        <mxCell id="FSPYU60QLCUDP6EqwfmJ-46" value="&lt;font style=&quot;font-size: 24px;&quot;&gt;Enemy Attack&lt;/font&gt;" style="rounded=1;whiteSpace=wrap;html=1;" parent="1" vertex="1">
          <mxGeometry x="840" y="1034" width="240" height="90" as="geometry" />
        </mxCell>
        <mxCell id="FSPYU60QLCUDP6EqwfmJ-64" style="edgeStyle=orthogonalEdgeStyle;rounded=0;orthogonalLoop=1;jettySize=auto;html=1;entryX=0.512;entryY=0.015;entryDx=0;entryDy=0;entryPerimeter=0;" parent="1" source="FSPYU60QLCUDP6EqwfmJ-47" target="20Vrr0Z5wNa73pxblmch-4" edge="1">
          <mxGeometry relative="1" as="geometry">
            <mxPoint x="959" y="1496" as="targetPoint" />
          </mxGeometry>
        </mxCell>
        <mxCell id="FSPYU60QLCUDP6EqwfmJ-47" value="&lt;font style=&quot;font-size: 24px;&quot;&gt;Player Crash Enemy&lt;/font&gt;" style="rounded=1;whiteSpace=wrap;html=1;" parent="1" vertex="1">
          <mxGeometry x="855" y="1349" width="210" height="90" as="geometry" />
        </mxCell>
        <mxCell id="FSPYU60QLCUDP6EqwfmJ-68" style="edgeStyle=orthogonalEdgeStyle;curved=1;rounded=0;orthogonalLoop=1;jettySize=auto;html=1;entryX=0;entryY=0.5;entryDx=0;entryDy=0;" parent="1" source="FSPYU60QLCUDP6EqwfmJ-50" target="FSPYU60QLCUDP6EqwfmJ-45" edge="1">
          <mxGeometry relative="1" as="geometry">
            <Array as="points">
              <mxPoint x="590" y="926" />
            </Array>
          </mxGeometry>
        </mxCell>
        <mxCell id="FSPYU60QLCUDP6EqwfmJ-50" value="&lt;span style=&quot;font-size: 24px;&quot;&gt;Increase Player Score&amp;nbsp;&lt;/span&gt;" style="rounded=1;whiteSpace=wrap;html=1;" parent="1" vertex="1">
          <mxGeometry x="500" y="1196" width="210" height="90" as="geometry" />
        </mxCell>
        <mxCell id="FSPYU60QLCUDP6EqwfmJ-70" style="edgeStyle=orthogonalEdgeStyle;curved=1;rounded=0;orthogonalLoop=1;jettySize=auto;html=1;entryX=0;entryY=0.25;entryDx=0;entryDy=0;exitX=0;exitY=0.5;exitDx=0;exitDy=0;" parent="1" source="FSPYU60QLCUDP6EqwfmJ-51" target="FSPYU60QLCUDP6EqwfmJ-45" edge="1">
          <mxGeometry relative="1" as="geometry">
            <Array as="points">
              <mxPoint x="470" y="1530" />
              <mxPoint x="470" y="903" />
            </Array>
          </mxGeometry>
        </mxCell>
        <mxCell id="FSPYU60QLCUDP6EqwfmJ-51" value="&lt;span style=&quot;font-size: 24px;&quot;&gt;Decrease Player Hearts&lt;/span&gt;" style="rounded=1;whiteSpace=wrap;html=1;" parent="1" vertex="1">
          <mxGeometry x="512" y="1485" width="210" height="90" as="geometry" />
        </mxCell>
        <mxCell id="FSPYU60QLCUDP6EqwfmJ-78" style="edgeStyle=orthogonalEdgeStyle;curved=1;rounded=0;orthogonalLoop=1;jettySize=auto;html=1;" parent="1" source="FSPYU60QLCUDP6EqwfmJ-52" target="20Vrr0Z5wNa73pxblmch-5" edge="1">
          <mxGeometry relative="1" as="geometry">
            <mxPoint x="959" y="1843" as="targetPoint" />
          </mxGeometry>
        </mxCell>
        <mxCell id="FSPYU60QLCUDP6EqwfmJ-52" value="&lt;span style=&quot;font-size: 24px;&quot;&gt;Game Over and Restart Button&lt;/span&gt;" style="rounded=1;whiteSpace=wrap;html=1;" parent="1" vertex="1">
          <mxGeometry x="853" y="1702" width="210" height="90" as="geometry" />
        </mxCell>
        <mxCell id="FSPYU60QLCUDP6EqwfmJ-65" style="edgeStyle=orthogonalEdgeStyle;rounded=0;orthogonalLoop=1;jettySize=auto;html=1;exitX=0.5;exitY=1;exitDx=0;exitDy=0;" parent="1" source="20Vrr0Z5wNa73pxblmch-4" target="FSPYU60QLCUDP6EqwfmJ-52" edge="1">
          <mxGeometry relative="1" as="geometry">
            <mxPoint x="959" y="1620" as="sourcePoint" />
          </mxGeometry>
        </mxCell>
        <mxCell id="FSPYU60QLCUDP6EqwfmJ-66" style="edgeStyle=orthogonalEdgeStyle;curved=1;rounded=0;orthogonalLoop=1;jettySize=auto;html=1;entryX=1;entryY=0.5;entryDx=0;entryDy=0;" parent="1" target="FSPYU60QLCUDP6EqwfmJ-51" edge="1">
          <mxGeometry relative="1" as="geometry">
            <mxPoint x="850" y="1530" as="sourcePoint" />
          </mxGeometry>
        </mxCell>
        <mxCell id="FSPYU60QLCUDP6EqwfmJ-73" value="" style="ellipse;html=1;" parent="1" vertex="1">
          <mxGeometry x="912.5" y="1997.04" width="90" height="90" as="geometry" />
        </mxCell>
        <mxCell id="FSPYU60QLCUDP6EqwfmJ-74" value="" style="ellipse;fillColor=strokeColor;html=1;" parent="1" vertex="1">
          <mxGeometry x="925" y="2009.54" width="65" height="65" as="geometry" />
        </mxCell>
        <mxCell id="FSPYU60QLCUDP6EqwfmJ-77" style="edgeStyle=orthogonalEdgeStyle;curved=1;rounded=0;orthogonalLoop=1;jettySize=auto;html=1;entryX=1;entryY=0.5;entryDx=0;entryDy=0;exitX=1.01;exitY=0.558;exitDx=0;exitDy=0;exitPerimeter=0;" parent="1" source="20Vrr0Z5wNa73pxblmch-5" target="FSPYU60QLCUDP6EqwfmJ-43" edge="1">
          <mxGeometry relative="1" as="geometry">
            <Array as="points">
              <mxPoint x="1180" y="1893" />
              <mxPoint x="1180" y="780" />
            </Array>
            <mxPoint x="1105" y="1974" as="sourcePoint" />
          </mxGeometry>
        </mxCell>
        <mxCell id="FSPYU60QLCUDP6EqwfmJ-79" style="edgeStyle=orthogonalEdgeStyle;curved=1;rounded=0;orthogonalLoop=1;jettySize=auto;html=1;entryX=0.5;entryY=0;entryDx=0;entryDy=0;exitX=0.5;exitY=1;exitDx=0;exitDy=0;" parent="1" source="20Vrr0Z5wNa73pxblmch-5" target="FSPYU60QLCUDP6EqwfmJ-73" edge="1">
          <mxGeometry relative="1" as="geometry">
            <mxPoint x="959.0769230769229" y="1944.0004847207588" as="sourcePoint" />
          </mxGeometry>
        </mxCell>
        <mxCell id="FSPYU60QLCUDP6EqwfmJ-81" value="True" style="text;html=1;align=center;verticalAlign=middle;resizable=0;points=[];autosize=1;strokeColor=none;fillColor=none;fontSize=26;" parent="1" vertex="1">
          <mxGeometry x="1150" y="1843" width="80" height="40" as="geometry" />
        </mxCell>
        <mxCell id="FSPYU60QLCUDP6EqwfmJ-82" value="False" style="text;html=1;align=center;verticalAlign=middle;resizable=0;points=[];autosize=1;strokeColor=none;fillColor=none;fontSize=26;" parent="1" vertex="1">
          <mxGeometry x="973" y="1944.04" width="90" height="40" as="geometry" />
        </mxCell>
        <mxCell id="FSPYU60QLCUDP6EqwfmJ-83" value="True" style="text;html=1;align=center;verticalAlign=middle;resizable=0;points=[];autosize=1;strokeColor=none;fillColor=none;fontSize=26;" parent="1" vertex="1">
          <mxGeometry x="722" y="1463" width="80" height="40" as="geometry" />
        </mxCell>
        <mxCell id="FSPYU60QLCUDP6EqwfmJ-84" value="False" style="text;html=1;align=center;verticalAlign=middle;resizable=0;points=[];autosize=1;strokeColor=none;fillColor=none;fontSize=26;" parent="1" vertex="1">
          <mxGeometry x="850" y="1620" width="90" height="40" as="geometry" />
        </mxCell>
        <mxCell id="FSPYU60QLCUDP6EqwfmJ-91" style="edgeStyle=orthogonalEdgeStyle;curved=1;rounded=0;orthogonalLoop=1;jettySize=auto;html=1;exitX=0.505;exitY=1.001;exitDx=0;exitDy=0;exitPerimeter=0;" parent="1" edge="1" source="20Vrr0Z5wNa73pxblmch-1">
          <mxGeometry relative="1" as="geometry">
            <mxPoint x="959.0769230769229" y="1309.956923076923" as="sourcePoint" />
            <mxPoint x="961.0769230769233" y="1349" as="targetPoint" />
            <Array as="points">
              <mxPoint x="961" y="1310" />
              <mxPoint x="961" y="1310" />
            </Array>
          </mxGeometry>
        </mxCell>
        <mxCell id="FSPYU60QLCUDP6EqwfmJ-92" style="edgeStyle=orthogonalEdgeStyle;curved=1;rounded=0;orthogonalLoop=1;jettySize=auto;html=1;exitX=0.003;exitY=0.581;exitDx=0;exitDy=0;exitPerimeter=0;" parent="1" source="20Vrr0Z5wNa73pxblmch-1" target="FSPYU60QLCUDP6EqwfmJ-50" edge="1">
          <mxGeometry relative="1" as="geometry">
            <mxPoint x="835" y="1240" as="sourcePoint" />
          </mxGeometry>
        </mxCell>
        <mxCell id="FSPYU60QLCUDP6EqwfmJ-93" value="True" style="text;html=1;align=center;verticalAlign=middle;resizable=0;points=[];autosize=1;strokeColor=none;fillColor=none;fontSize=26;" parent="1" vertex="1">
          <mxGeometry x="755" y="1190" width="80" height="40" as="geometry" />
        </mxCell>
        <mxCell id="FSPYU60QLCUDP6EqwfmJ-94" value="False" style="text;html=1;align=center;verticalAlign=middle;resizable=0;points=[];autosize=1;strokeColor=none;fillColor=none;fontSize=26;" parent="1" vertex="1">
          <mxGeometry x="855" y="1297" width="90" height="40" as="geometry" />
        </mxCell>
        <mxCell id="20Vrr0Z5wNa73pxblmch-1" value="&lt;span style=&quot;font-size: 24px;&quot;&gt;Player Jump&amp;nbsp;&lt;/span&gt;&lt;div&gt;&lt;span style=&quot;font-size: 24px;&quot;&gt;Enemy ?&lt;/span&gt;&lt;/div&gt;" style="rounded=1;whiteSpace=wrap;html=1;" vertex="1" parent="1">
          <mxGeometry x="840" y="1189" width="240" height="90" as="geometry" />
        </mxCell>
        <mxCell id="20Vrr0Z5wNa73pxblmch-4" value="&lt;span style=&quot;font-size: 24px;&quot;&gt;Is Player&#39;s Hearts&amp;nbsp;&lt;/span&gt;&lt;div&gt;&lt;span style=&quot;font-size: 24px;&quot;&gt;Still Available&lt;/span&gt;&lt;span style=&quot;color: rgb(192, 192, 192); font-size: 24px; background-color: transparent;&quot;&gt;&amp;nbsp;?&lt;/span&gt;&lt;/div&gt;" style="rounded=1;whiteSpace=wrap;html=1;" vertex="1" parent="1">
          <mxGeometry x="853" y="1485" width="210" height="90" as="geometry" />
        </mxCell>
        <mxCell id="20Vrr0Z5wNa73pxblmch-5" value="&lt;span style=&quot;font-size: 24px;&quot;&gt;Restart Button&lt;/span&gt;" style="rounded=1;whiteSpace=wrap;html=1;" vertex="1" parent="1">
          <mxGeometry x="852.5" y="1843" width="210" height="90" as="geometry" />
        </mxCell>
      </root>
    </mxGraphModel>
  </diagram>
  <diagram id="iEk0Q3Eqa8m4GMeRP_Q_" name="Diagram Context">
    <mxGraphModel dx="1744" dy="1323" grid="1" gridSize="10" guides="1" tooltips="1" connect="1" arrows="1" fold="1" page="0" pageScale="1" pageWidth="850" pageHeight="1100" math="0" shadow="0">
      <root>
        <mxCell id="0" />
        <mxCell id="1" parent="0" />
        <mxCell id="yoN1Pa8hM3IIy74HRjsv-6" style="edgeStyle=orthogonalEdgeStyle;rounded=0;orthogonalLoop=1;jettySize=auto;html=1;entryX=0.5;entryY=0;entryDx=0;entryDy=0;" edge="1" parent="1" source="yoN1Pa8hM3IIy74HRjsv-1" target="yoN1Pa8hM3IIy74HRjsv-3">
          <mxGeometry relative="1" as="geometry">
            <Array as="points">
              <mxPoint x="230" y="30" />
              <mxPoint x="430" y="30" />
            </Array>
          </mxGeometry>
        </mxCell>
        <mxCell id="yoN1Pa8hM3IIy74HRjsv-7" style="edgeStyle=orthogonalEdgeStyle;rounded=0;orthogonalLoop=1;jettySize=auto;html=1;entryX=0.25;entryY=1;entryDx=0;entryDy=0;" edge="1" parent="1" source="yoN1Pa8hM3IIy74HRjsv-1" target="yoN1Pa8hM3IIy74HRjsv-2">
          <mxGeometry relative="1" as="geometry">
            <mxPoint x="210" y="245" as="targetPoint" />
            <Array as="points">
              <mxPoint x="210" y="220" />
              <mxPoint x="-40" y="220" />
            </Array>
          </mxGeometry>
        </mxCell>
        <mxCell id="yoN1Pa8hM3IIy74HRjsv-16" style="edgeStyle=orthogonalEdgeStyle;rounded=0;orthogonalLoop=1;jettySize=auto;html=1;entryX=0.25;entryY=0;entryDx=0;entryDy=0;" edge="1" parent="1" source="yoN1Pa8hM3IIy74HRjsv-1" target="yoN1Pa8hM3IIy74HRjsv-2">
          <mxGeometry relative="1" as="geometry">
            <mxPoint x="210" y="-23" as="targetPoint" />
            <Array as="points">
              <mxPoint x="210" y="20" />
              <mxPoint x="-40" y="20" />
            </Array>
          </mxGeometry>
        </mxCell>
        <mxCell id="yoN1Pa8hM3IIy74HRjsv-1" value="0&amp;nbsp;&lt;div&gt;Actulia Game&amp;nbsp;&lt;/div&gt;&lt;div&gt;P5JS Base&lt;/div&gt;" style="ellipse;whiteSpace=wrap;html=1;aspect=fixed;" vertex="1" parent="1">
          <mxGeometry x="160" y="70" width="100" height="100" as="geometry" />
        </mxCell>
        <mxCell id="yoN1Pa8hM3IIy74HRjsv-2" value="Player" style="rounded=0;whiteSpace=wrap;html=1;" vertex="1" parent="1">
          <mxGeometry x="-70" y="90" width="120" height="60" as="geometry" />
        </mxCell>
        <mxCell id="yoN1Pa8hM3IIy74HRjsv-3" value="Enemy" style="rounded=0;whiteSpace=wrap;html=1;" vertex="1" parent="1">
          <mxGeometry x="370" y="90" width="120" height="60" as="geometry" />
        </mxCell>
        <mxCell id="yoN1Pa8hM3IIy74HRjsv-8" style="edgeStyle=orthogonalEdgeStyle;rounded=0;orthogonalLoop=1;jettySize=auto;html=1;entryX=0.27;entryY=0.97;entryDx=0;entryDy=0;entryPerimeter=0;" edge="1" parent="1" source="yoN1Pa8hM3IIy74HRjsv-2" target="yoN1Pa8hM3IIy74HRjsv-1">
          <mxGeometry relative="1" as="geometry">
            <Array as="points">
              <mxPoint x="-10" y="190" />
              <mxPoint x="187" y="190" />
            </Array>
          </mxGeometry>
        </mxCell>
        <mxCell id="yoN1Pa8hM3IIy74HRjsv-9" style="edgeStyle=orthogonalEdgeStyle;rounded=0;orthogonalLoop=1;jettySize=auto;html=1;entryX=0.71;entryY=0.97;entryDx=0;entryDy=0;entryPerimeter=0;" edge="1" parent="1" source="yoN1Pa8hM3IIy74HRjsv-3" target="yoN1Pa8hM3IIy74HRjsv-1">
          <mxGeometry relative="1" as="geometry">
            <Array as="points">
              <mxPoint x="430" y="200" />
              <mxPoint x="231" y="200" />
            </Array>
          </mxGeometry>
        </mxCell>
        <mxCell id="yoN1Pa8hM3IIy74HRjsv-11" value="Attack Player" style="text;html=1;align=left;verticalAlign=middle;resizable=0;points=[];autosize=1;strokeColor=none;fillColor=none;" vertex="1" parent="1">
          <mxGeometry x="290" y="170" width="90" height="30" as="geometry" />
        </mxCell>
        <mxCell id="yoN1Pa8hM3IIy74HRjsv-12" value="Jump Enemy" style="text;html=1;align=center;verticalAlign=middle;resizable=0;points=[];autosize=1;strokeColor=none;fillColor=none;" vertex="1" parent="1">
          <mxGeometry x="280" y="30" width="90" height="30" as="geometry" />
        </mxCell>
        <mxCell id="yoN1Pa8hM3IIy74HRjsv-13" value="Increase Score" style="text;html=1;align=right;verticalAlign=middle;resizable=0;points=[];autosize=1;strokeColor=none;fillColor=none;" vertex="1" parent="1">
          <mxGeometry x="10" y="190" width="100" height="30" as="geometry" />
        </mxCell>
        <mxCell id="yoN1Pa8hM3IIy74HRjsv-14" value="Jump Enemy" style="text;html=1;align=center;verticalAlign=middle;resizable=0;points=[];autosize=1;strokeColor=none;fillColor=none;" vertex="1" parent="1">
          <mxGeometry x="20" y="160" width="90" height="30" as="geometry" />
        </mxCell>
        <mxCell id="yoN1Pa8hM3IIy74HRjsv-17" value="Decrease Heart" style="text;html=1;align=center;verticalAlign=middle;resizable=0;points=[];autosize=1;strokeColor=none;fillColor=none;" vertex="1" parent="1">
          <mxGeometry x="30" y="-10" width="110" height="30" as="geometry" />
        </mxCell>
        <mxCell id="NUV8uvSSPO-n9mqTAKex-1" style="edgeStyle=orthogonalEdgeStyle;rounded=0;orthogonalLoop=1;jettySize=auto;html=1;entryX=0.27;entryY=0.05;entryDx=0;entryDy=0;entryPerimeter=0;" edge="1" parent="1" source="yoN1Pa8hM3IIy74HRjsv-2" target="yoN1Pa8hM3IIy74HRjsv-1">
          <mxGeometry relative="1" as="geometry">
            <Array as="points">
              <mxPoint x="-10" y="60" />
              <mxPoint x="187" y="60" />
            </Array>
          </mxGeometry>
        </mxCell>
        <mxCell id="NUV8uvSSPO-n9mqTAKex-3" value="Walk to Enemy" style="text;html=1;align=center;verticalAlign=middle;resizable=0;points=[];autosize=1;strokeColor=none;fillColor=none;" vertex="1" parent="1">
          <mxGeometry x="20" y="30" width="100" height="30" as="geometry" />
        </mxCell>
      </root>
    </mxGraphModel>
  </diagram>
  <diagram id="UmjiGsebAxLek2AVR1Ag" name="Data Flow Diagram">
    <mxGraphModel dx="1034" dy="1110" grid="1" gridSize="10" guides="1" tooltips="1" connect="1" arrows="1" fold="1" page="0" pageScale="1" pageWidth="850" pageHeight="1100" math="0" shadow="0">
      <root>
        <mxCell id="0" />
        <mxCell id="1" parent="0" />
        <mxCell id="pyFGrYPpcZ132LdNJAXB-23" style="edgeStyle=orthogonalEdgeStyle;rounded=0;orthogonalLoop=1;jettySize=auto;html=1;entryX=0;entryY=0.5;entryDx=0;entryDy=0;" edge="1" parent="1" source="B4j9bbEWpDl9m789sNPX-6" target="pyFGrYPpcZ132LdNJAXB-18">
          <mxGeometry relative="1" as="geometry" />
        </mxCell>
        <mxCell id="B4j9bbEWpDl9m789sNPX-6" value="Player" style="rounded=0;whiteSpace=wrap;html=1;" vertex="1" parent="1">
          <mxGeometry x="30" y="60" width="120" height="60" as="geometry" />
        </mxCell>
        <mxCell id="pyFGrYPpcZ132LdNJAXB-29" style="edgeStyle=orthogonalEdgeStyle;rounded=0;orthogonalLoop=1;jettySize=auto;html=1;entryX=1;entryY=0.5;entryDx=0;entryDy=0;" edge="1" parent="1" source="B4j9bbEWpDl9m789sNPX-7" target="pyFGrYPpcZ132LdNJAXB-28">
          <mxGeometry relative="1" as="geometry" />
        </mxCell>
        <mxCell id="B4j9bbEWpDl9m789sNPX-7" value="Enemy" style="rounded=0;whiteSpace=wrap;html=1;" vertex="1" parent="1">
          <mxGeometry x="610" y="60" width="120" height="60" as="geometry" />
        </mxCell>
        <mxCell id="B4j9bbEWpDl9m789sNPX-12" value="crash with enemy" style="text;html=1;align=center;verticalAlign=middle;resizable=0;points=[];autosize=1;strokeColor=none;fillColor=none;" vertex="1" parent="1">
          <mxGeometry x="515" y="-20" width="120" height="30" as="geometry" />
        </mxCell>
        <mxCell id="B4j9bbEWpDl9m789sNPX-13" value="Increase Score" style="text;html=1;align=right;verticalAlign=middle;resizable=0;points=[];autosize=1;strokeColor=none;fillColor=none;" vertex="1" parent="1">
          <mxGeometry x="350" y="220" width="100" height="30" as="geometry" />
        </mxCell>
        <mxCell id="B4j9bbEWpDl9m789sNPX-15" value="Decrease Heart" style="text;html=1;align=center;verticalAlign=middle;resizable=0;points=[];autosize=1;strokeColor=none;fillColor=none;" vertex="1" parent="1">
          <mxGeometry x="340" y="-60" width="110" height="30" as="geometry" />
        </mxCell>
        <mxCell id="B4j9bbEWpDl9m789sNPX-16" value="DS Heart" style="html=1;dashed=0;whiteSpace=wrap;shape=partialRectangle;right=0;left=0;" vertex="1" parent="1">
          <mxGeometry x="405" y="-100" width="100" height="30" as="geometry" />
        </mxCell>
        <mxCell id="B4j9bbEWpDl9m789sNPX-17" value="DS Score" style="html=1;dashed=0;whiteSpace=wrap;shape=partialRectangle;right=0;left=0;" vertex="1" parent="1">
          <mxGeometry x="420" y="260" width="100" height="30" as="geometry" />
        </mxCell>
        <mxCell id="pyFGrYPpcZ132LdNJAXB-22" style="edgeStyle=orthogonalEdgeStyle;rounded=0;orthogonalLoop=1;jettySize=auto;html=1;entryX=0;entryY=0.5;entryDx=0;entryDy=0;" edge="1" parent="1" source="pyFGrYPpcZ132LdNJAXB-18" target="pyFGrYPpcZ132LdNJAXB-19">
          <mxGeometry relative="1" as="geometry">
            <Array as="points">
              <mxPoint x="260" y="10" />
            </Array>
          </mxGeometry>
        </mxCell>
        <mxCell id="pyFGrYPpcZ132LdNJAXB-25" style="edgeStyle=orthogonalEdgeStyle;rounded=0;orthogonalLoop=1;jettySize=auto;html=1;entryX=0;entryY=0.5;entryDx=0;entryDy=0;" edge="1" parent="1" source="pyFGrYPpcZ132LdNJAXB-18" target="pyFGrYPpcZ132LdNJAXB-24">
          <mxGeometry relative="1" as="geometry">
            <Array as="points">
              <mxPoint x="260" y="168" />
            </Array>
          </mxGeometry>
        </mxCell>
        <mxCell id="pyFGrYPpcZ132LdNJAXB-18" value="&lt;div&gt;&lt;span style=&quot;background-color: transparent; color: light-dark(rgb(0, 0, 0), rgb(255, 255, 255));&quot;&gt;Walk To Enemy&lt;/span&gt;&lt;/div&gt;" style="ellipse;whiteSpace=wrap;html=1;" vertex="1" parent="1">
          <mxGeometry x="200" y="50" width="120" height="80" as="geometry" />
        </mxCell>
        <mxCell id="pyFGrYPpcZ132LdNJAXB-20" style="edgeStyle=orthogonalEdgeStyle;rounded=0;orthogonalLoop=1;jettySize=auto;html=1;entryX=0.5;entryY=0;entryDx=0;entryDy=0;" edge="1" parent="1" source="pyFGrYPpcZ132LdNJAXB-19" target="B4j9bbEWpDl9m789sNPX-7">
          <mxGeometry relative="1" as="geometry" />
        </mxCell>
        <mxCell id="pyFGrYPpcZ132LdNJAXB-34" style="edgeStyle=orthogonalEdgeStyle;rounded=0;orthogonalLoop=1;jettySize=auto;html=1;" edge="1" parent="1" source="pyFGrYPpcZ132LdNJAXB-19" target="B4j9bbEWpDl9m789sNPX-16">
          <mxGeometry relative="1" as="geometry" />
        </mxCell>
        <mxCell id="pyFGrYPpcZ132LdNJAXB-36" style="edgeStyle=orthogonalEdgeStyle;rounded=0;orthogonalLoop=1;jettySize=auto;html=1;exitX=1;exitY=0;exitDx=0;exitDy=0;" edge="1" parent="1" source="pyFGrYPpcZ132LdNJAXB-19">
          <mxGeometry relative="1" as="geometry">
            <mxPoint x="500" y="260" as="targetPoint" />
            <Array as="points">
              <mxPoint x="487" y="-30" />
              <mxPoint x="740" y="-30" />
              <mxPoint x="740" y="220" />
              <mxPoint x="499" y="220" />
            </Array>
          </mxGeometry>
        </mxCell>
        <mxCell id="pyFGrYPpcZ132LdNJAXB-19" value="Crash" style="ellipse;whiteSpace=wrap;html=1;" vertex="1" parent="1">
          <mxGeometry x="410" y="-20" width="90" height="60" as="geometry" />
        </mxCell>
        <mxCell id="pyFGrYPpcZ132LdNJAXB-26" style="edgeStyle=orthogonalEdgeStyle;rounded=0;orthogonalLoop=1;jettySize=auto;html=1;entryX=0.5;entryY=1;entryDx=0;entryDy=0;" edge="1" parent="1" source="pyFGrYPpcZ132LdNJAXB-24" target="B4j9bbEWpDl9m789sNPX-7">
          <mxGeometry relative="1" as="geometry" />
        </mxCell>
        <mxCell id="pyFGrYPpcZ132LdNJAXB-24" value="Jump" style="ellipse;whiteSpace=wrap;html=1;" vertex="1" parent="1">
          <mxGeometry x="420" y="138" width="90" height="60" as="geometry" />
        </mxCell>
        <mxCell id="pyFGrYPpcZ132LdNJAXB-30" style="edgeStyle=orthogonalEdgeStyle;rounded=0;orthogonalLoop=1;jettySize=auto;html=1;entryX=1;entryY=0.5;entryDx=0;entryDy=0;" edge="1" parent="1" source="pyFGrYPpcZ132LdNJAXB-28" target="pyFGrYPpcZ132LdNJAXB-18">
          <mxGeometry relative="1" as="geometry" />
        </mxCell>
        <mxCell id="pyFGrYPpcZ132LdNJAXB-28" value="Attack" style="ellipse;whiteSpace=wrap;html=1;" vertex="1" parent="1">
          <mxGeometry x="410" y="60" width="95" height="60" as="geometry" />
        </mxCell>
        <mxCell id="pyFGrYPpcZ132LdNJAXB-31" value="attack player" style="text;html=1;align=center;verticalAlign=middle;resizable=0;points=[];autosize=1;strokeColor=none;fillColor=none;" vertex="1" parent="1">
          <mxGeometry x="515" y="60" width="90" height="30" as="geometry" />
        </mxCell>
        <mxCell id="pyFGrYPpcZ132LdNJAXB-32" value="jump from enemy" style="text;html=1;align=center;verticalAlign=middle;resizable=0;points=[];autosize=1;strokeColor=none;fillColor=none;" vertex="1" parent="1">
          <mxGeometry x="525" y="138" width="120" height="30" as="geometry" />
        </mxCell>
        <mxCell id="pyFGrYPpcZ132LdNJAXB-35" style="edgeStyle=orthogonalEdgeStyle;rounded=0;orthogonalLoop=1;jettySize=auto;html=1;entryX=0.459;entryY=0.009;entryDx=0;entryDy=0;entryPerimeter=0;" edge="1" parent="1" source="pyFGrYPpcZ132LdNJAXB-24" target="B4j9bbEWpDl9m789sNPX-17">
          <mxGeometry relative="1" as="geometry" />
        </mxCell>
        <mxCell id="pyFGrYPpcZ132LdNJAXB-37" value="stop increase score" style="text;html=1;align=center;verticalAlign=middle;resizable=0;points=[];autosize=1;strokeColor=none;fillColor=none;" vertex="1" parent="1">
          <mxGeometry x="502" y="194" width="130" height="30" as="geometry" />
        </mxCell>
      </root>
    </mxGraphModel>
  </diagram>
</mxfile>
